<mxfile host="app.diagrams.net" modified="2024-05-23T08:30:29.499Z" agent="Mozilla/5.0 (Macintosh; Intel Mac OS X 10_15_7) AppleWebKit/537.36 (KHTML, like Gecko) Chrome/125.0.0.0 Safari/537.36" etag="wWbe2T8nVPB5DimzZKYN" version="24.4.6" type="github">
  <diagram name="Page-1" id="IWnAmNE7MLX-MQJfaZ-H">
    <mxGraphModel dx="893" dy="557" grid="1" gridSize="10" guides="1" tooltips="1" connect="1" arrows="1" fold="1" page="1" pageScale="1" pageWidth="827" pageHeight="1169" math="0" shadow="0">
      <root>
        <mxCell id="0" />
        <mxCell id="1" parent="0" />
        <mxCell id="4hnvYEBA5v5D1nBLIyNg-10" style="edgeStyle=orthogonalEdgeStyle;rounded=0;orthogonalLoop=1;jettySize=auto;html=1;entryX=0;entryY=0.5;entryDx=0;entryDy=0;" edge="1" parent="1" source="4hnvYEBA5v5D1nBLIyNg-1" target="4hnvYEBA5v5D1nBLIyNg-3">
          <mxGeometry relative="1" as="geometry" />
        </mxCell>
        <mxCell id="4hnvYEBA5v5D1nBLIyNg-1" value="Producción - Fabricante" style="rounded=1;whiteSpace=wrap;html=1;" vertex="1" parent="1">
          <mxGeometry x="170" y="130" width="100" height="40" as="geometry" />
        </mxCell>
        <mxCell id="4hnvYEBA5v5D1nBLIyNg-7" style="edgeStyle=orthogonalEdgeStyle;rounded=0;orthogonalLoop=1;jettySize=auto;html=1;entryX=0;entryY=0.5;entryDx=0;entryDy=0;" edge="1" parent="1" source="4hnvYEBA5v5D1nBLIyNg-3" target="4hnvYEBA5v5D1nBLIyNg-4">
          <mxGeometry relative="1" as="geometry" />
        </mxCell>
        <mxCell id="4hnvYEBA5v5D1nBLIyNg-3" value="Centro de distribución - Almacén" style="rounded=1;whiteSpace=wrap;html=1;" vertex="1" parent="1">
          <mxGeometry x="310" y="130" width="120" height="40" as="geometry" />
        </mxCell>
        <mxCell id="4hnvYEBA5v5D1nBLIyNg-9" style="edgeStyle=orthogonalEdgeStyle;rounded=0;orthogonalLoop=1;jettySize=auto;html=1;entryX=0;entryY=0.5;entryDx=0;entryDy=0;" edge="1" parent="1" source="4hnvYEBA5v5D1nBLIyNg-4" target="4hnvYEBA5v5D1nBLIyNg-8">
          <mxGeometry relative="1" as="geometry" />
        </mxCell>
        <mxCell id="4hnvYEBA5v5D1nBLIyNg-4" value="Punto de venta retail" style="rounded=1;whiteSpace=wrap;html=1;fillColor=#ffe6cc;strokeColor=#d79b00;" vertex="1" parent="1">
          <mxGeometry x="470" y="130" width="100" height="40" as="geometry" />
        </mxCell>
        <mxCell id="4hnvYEBA5v5D1nBLIyNg-8" value="Cliente final - Consumidor" style="rounded=1;whiteSpace=wrap;html=1;" vertex="1" parent="1">
          <mxGeometry x="610" y="130" width="90" height="40" as="geometry" />
        </mxCell>
        <mxCell id="4hnvYEBA5v5D1nBLIyNg-15" style="edgeStyle=orthogonalEdgeStyle;rounded=0;orthogonalLoop=1;jettySize=auto;html=1;entryX=0;entryY=0.5;entryDx=0;entryDy=0;" edge="1" parent="1" source="4hnvYEBA5v5D1nBLIyNg-11" target="4hnvYEBA5v5D1nBLIyNg-12">
          <mxGeometry relative="1" as="geometry" />
        </mxCell>
        <mxCell id="4hnvYEBA5v5D1nBLIyNg-16" style="edgeStyle=orthogonalEdgeStyle;rounded=0;orthogonalLoop=1;jettySize=auto;html=1;entryX=0;entryY=0.5;entryDx=0;entryDy=0;" edge="1" parent="1" source="4hnvYEBA5v5D1nBLIyNg-11" target="4hnvYEBA5v5D1nBLIyNg-13">
          <mxGeometry relative="1" as="geometry" />
        </mxCell>
        <mxCell id="4hnvYEBA5v5D1nBLIyNg-17" style="edgeStyle=orthogonalEdgeStyle;rounded=0;orthogonalLoop=1;jettySize=auto;html=1;entryX=0;entryY=0.5;entryDx=0;entryDy=0;" edge="1" parent="1" source="4hnvYEBA5v5D1nBLIyNg-11" target="4hnvYEBA5v5D1nBLIyNg-14">
          <mxGeometry relative="1" as="geometry" />
        </mxCell>
        <mxCell id="4hnvYEBA5v5D1nBLIyNg-20" style="edgeStyle=orthogonalEdgeStyle;rounded=0;orthogonalLoop=1;jettySize=auto;html=1;entryX=0;entryY=0.5;entryDx=0;entryDy=0;" edge="1" parent="1" source="4hnvYEBA5v5D1nBLIyNg-11" target="4hnvYEBA5v5D1nBLIyNg-19">
          <mxGeometry relative="1" as="geometry" />
        </mxCell>
        <mxCell id="4hnvYEBA5v5D1nBLIyNg-30" style="edgeStyle=orthogonalEdgeStyle;rounded=0;orthogonalLoop=1;jettySize=auto;html=1;entryX=0;entryY=0.5;entryDx=0;entryDy=0;" edge="1" parent="1" source="4hnvYEBA5v5D1nBLIyNg-11" target="4hnvYEBA5v5D1nBLIyNg-29">
          <mxGeometry relative="1" as="geometry" />
        </mxCell>
        <mxCell id="4hnvYEBA5v5D1nBLIyNg-11" value="Punto de venta retail" style="rounded=1;whiteSpace=wrap;html=1;" vertex="1" parent="1">
          <mxGeometry x="200" y="365" width="100" height="40" as="geometry" />
        </mxCell>
        <mxCell id="4hnvYEBA5v5D1nBLIyNg-12" value="Odontólogo Independiente" style="rounded=1;whiteSpace=wrap;html=1;" vertex="1" parent="1">
          <mxGeometry x="360" y="330" width="90" height="30" as="geometry" />
        </mxCell>
        <mxCell id="4hnvYEBA5v5D1nBLIyNg-13" value="Laboratorio dental" style="rounded=1;whiteSpace=wrap;html=1;" vertex="1" parent="1">
          <mxGeometry x="360" y="370" width="120" height="30" as="geometry" />
        </mxCell>
        <mxCell id="4hnvYEBA5v5D1nBLIyNg-14" value="Paciente" style="rounded=1;whiteSpace=wrap;html=1;" vertex="1" parent="1">
          <mxGeometry x="360" y="450" width="80" height="30" as="geometry" />
        </mxCell>
        <mxCell id="4hnvYEBA5v5D1nBLIyNg-19" value="Almacén dental" style="rounded=1;whiteSpace=wrap;html=1;" vertex="1" parent="1">
          <mxGeometry x="360" y="410" width="100" height="30" as="geometry" />
        </mxCell>
        <mxCell id="4hnvYEBA5v5D1nBLIyNg-21" value="Odontólogo" style="rounded=1;whiteSpace=wrap;html=1;" vertex="1" parent="1">
          <mxGeometry x="260" y="610" width="90" height="30" as="geometry" />
        </mxCell>
        <mxCell id="4hnvYEBA5v5D1nBLIyNg-22" value="Paciente" style="rounded=1;whiteSpace=wrap;html=1;" vertex="1" parent="1">
          <mxGeometry x="70" y="610" width="80" height="30" as="geometry" />
        </mxCell>
        <mxCell id="4hnvYEBA5v5D1nBLIyNg-29" value="Clinica Odontologica" style="rounded=1;whiteSpace=wrap;html=1;" vertex="1" parent="1">
          <mxGeometry x="360" y="290" width="90" height="30" as="geometry" />
        </mxCell>
        <mxCell id="4hnvYEBA5v5D1nBLIyNg-32" value="&lt;b&gt;Historia clinica del paciente&amp;nbsp;&lt;/b&gt;" style="swimlane;fontStyle=0;childLayout=stackLayout;horizontal=1;startSize=30;horizontalStack=0;resizeParent=1;resizeParentMax=0;resizeLast=0;collapsible=1;marginBottom=0;whiteSpace=wrap;html=1;" vertex="1" parent="1">
          <mxGeometry x="110" y="710" width="200" height="260" as="geometry">
            <mxRectangle x="110" y="710" width="200" height="30" as="alternateBounds" />
          </mxGeometry>
        </mxCell>
        <mxCell id="4hnvYEBA5v5D1nBLIyNg-33" value="- Información personal del paciente" style="text;strokeColor=none;fillColor=none;align=left;verticalAlign=middle;spacingLeft=4;spacingRight=4;overflow=hidden;points=[[0,0.5],[1,0.5]];portConstraint=eastwest;rotatable=0;whiteSpace=wrap;html=1;" vertex="1" parent="4hnvYEBA5v5D1nBLIyNg-32">
          <mxGeometry y="30" width="200" height="20" as="geometry" />
        </mxCell>
        <mxCell id="4hnvYEBA5v5D1nBLIyNg-34" value="- Historial médico" style="text;strokeColor=none;fillColor=none;align=left;verticalAlign=middle;spacingLeft=4;spacingRight=4;overflow=hidden;points=[[0,0.5],[1,0.5]];portConstraint=eastwest;rotatable=0;whiteSpace=wrap;html=1;" vertex="1" parent="4hnvYEBA5v5D1nBLIyNg-32">
          <mxGeometry y="50" width="200" height="20" as="geometry" />
        </mxCell>
        <mxCell id="4hnvYEBA5v5D1nBLIyNg-35" value="- Historial dental" style="text;strokeColor=none;fillColor=none;align=left;verticalAlign=middle;spacingLeft=4;spacingRight=4;overflow=hidden;points=[[0,0.5],[1,0.5]];portConstraint=eastwest;rotatable=0;whiteSpace=wrap;html=1;" vertex="1" parent="4hnvYEBA5v5D1nBLIyNg-32">
          <mxGeometry y="70" width="200" height="20" as="geometry" />
        </mxCell>
        <mxCell id="4hnvYEBA5v5D1nBLIyNg-36" value="- Exámenes clínicos" style="text;strokeColor=none;fillColor=none;align=left;verticalAlign=middle;spacingLeft=4;spacingRight=4;overflow=hidden;points=[[0,0.5],[1,0.5]];portConstraint=eastwest;rotatable=0;whiteSpace=wrap;html=1;" vertex="1" parent="4hnvYEBA5v5D1nBLIyNg-32">
          <mxGeometry y="90" width="200" height="20" as="geometry" />
        </mxCell>
        <mxCell id="4hnvYEBA5v5D1nBLIyNg-37" value="- Registro de tratamientos" style="text;strokeColor=none;fillColor=none;align=left;verticalAlign=middle;spacingLeft=4;spacingRight=4;overflow=hidden;points=[[0,0.5],[1,0.5]];portConstraint=eastwest;rotatable=0;whiteSpace=wrap;html=1;" vertex="1" parent="4hnvYEBA5v5D1nBLIyNg-32">
          <mxGeometry y="110" width="200" height="20" as="geometry" />
        </mxCell>
        <mxCell id="4hnvYEBA5v5D1nBLIyNg-38" value="- Registro de procedimientos quirúrgicos" style="text;strokeColor=none;fillColor=none;align=left;verticalAlign=middle;spacingLeft=4;spacingRight=4;overflow=hidden;points=[[0,0.5],[1,0.5]];portConstraint=eastwest;rotatable=0;whiteSpace=wrap;html=1;" vertex="1" parent="4hnvYEBA5v5D1nBLIyNg-32">
          <mxGeometry y="130" width="200" height="30" as="geometry" />
        </mxCell>
        <mxCell id="4hnvYEBA5v5D1nBLIyNg-39" value="- Notas de evolución" style="text;strokeColor=none;fillColor=none;align=left;verticalAlign=middle;spacingLeft=4;spacingRight=4;overflow=hidden;points=[[0,0.5],[1,0.5]];portConstraint=eastwest;rotatable=0;whiteSpace=wrap;html=1;" vertex="1" parent="4hnvYEBA5v5D1nBLIyNg-32">
          <mxGeometry y="160" width="200" height="20" as="geometry" />
        </mxCell>
        <mxCell id="4hnvYEBA5v5D1nBLIyNg-40" value="- Consentimientos informados" style="text;strokeColor=none;fillColor=none;align=left;verticalAlign=middle;spacingLeft=4;spacingRight=4;overflow=hidden;points=[[0,0.5],[1,0.5]];portConstraint=eastwest;rotatable=0;whiteSpace=wrap;html=1;" vertex="1" parent="4hnvYEBA5v5D1nBLIyNg-32">
          <mxGeometry y="180" width="200" height="20" as="geometry" />
        </mxCell>
        <mxCell id="4hnvYEBA5v5D1nBLIyNg-41" value="- Comunicaciones y correspondencia" style="text;strokeColor=none;fillColor=none;align=left;verticalAlign=middle;spacingLeft=4;spacingRight=4;overflow=hidden;points=[[0,0.5],[1,0.5]];portConstraint=eastwest;rotatable=0;whiteSpace=wrap;html=1;" vertex="1" parent="4hnvYEBA5v5D1nBLIyNg-32">
          <mxGeometry y="200" width="200" height="30" as="geometry" />
        </mxCell>
        <mxCell id="4hnvYEBA5v5D1nBLIyNg-42" value="- Confidencialidad y cumplimiento legal" style="text;strokeColor=none;fillColor=none;align=left;verticalAlign=middle;spacingLeft=4;spacingRight=4;overflow=hidden;points=[[0,0.5],[1,0.5]];portConstraint=eastwest;rotatable=0;whiteSpace=wrap;html=1;" vertex="1" parent="4hnvYEBA5v5D1nBLIyNg-32">
          <mxGeometry y="230" width="200" height="30" as="geometry" />
        </mxCell>
      </root>
    </mxGraphModel>
  </diagram>
</mxfile>
